<svg width="31" height="31" viewBox="0 0 31 31" fill="none" xmlns="http://www.w3.org/2000/svg">
<path d="M1.29199 5.16666V12.9167H9.04199" stroke="#B1B1B1" stroke-width="2" stroke-linecap="round" stroke-linejoin="round"/>
<path d="M4.53408 19.375C5.37158 21.7522 6.95897 23.7927 9.05705 25.1893C11.1551 26.5858 13.6503 27.2627 16.1665 27.1179C18.6827 26.973 21.0837 26.0144 23.0077 24.3864C24.9317 22.7583 26.2744 20.5491 26.8337 18.0916C27.3929 15.634 27.1384 13.0613 26.1083 10.761C25.0782 8.46074 23.3285 6.55753 21.1227 5.33816C18.917 4.11879 16.3747 3.6493 13.8789 4.00045C11.3831 4.35159 9.06901 5.50434 7.28533 7.28501L1.29199 12.9167" stroke="#B1B1B1" stroke-width="2" stroke-linecap="round" stroke-linejoin="round"/>
<path d="M14.6528 12.68V14.828H17.4008L18.7928 15.632V19.256L17.4008 20.06H14.6048L13.2128 19.256V17.9H14.4128V18.98H17.5928V15.908H13.4528V11.6H18.6728V12.68H14.6528Z" fill="#B1B1B1"/>
</svg>
