<svg width="31" height="31" viewBox="0 0 31 31" fill="none" xmlns="http://www.w3.org/2000/svg">
<path d="M29.708 5.16666V12.9167H21.958" stroke="#B1B1B1" stroke-width="2" stroke-linecap="round" stroke-linejoin="round"/>
<path d="M26.4659 19.375C25.6284 21.7522 24.041 23.7927 21.943 25.1893C19.8449 26.5858 17.3497 27.2627 14.8335 27.1179C12.3173 26.973 9.91634 26.0144 7.99234 24.3864C6.06834 22.7583 4.72555 20.5491 4.1663 18.0916C3.60705 15.634 3.86164 13.0613 4.8917 10.761C5.92176 8.46074 7.67149 6.55753 9.87726 5.33816C12.083 4.11879 14.6253 3.6493 17.1211 4.00045C19.6169 4.35159 21.931 5.50434 23.7147 7.28501L29.708 12.9167" stroke="#B1B1B1" stroke-width="2" stroke-linecap="round" stroke-linejoin="round"/>
<path d="M13.6528 12.68V14.828H16.4008L17.7928 15.632V19.256L16.4008 20.06H13.6048L12.2128 19.256V17.9H13.4128V18.98H16.5928V15.908H12.4528V11.6H17.6728V12.68H13.6528Z" fill="#B1B1B1"/>
</svg>
