<svg width="25" height="24" viewBox="0 0 25 24" fill="none" xmlns="http://www.w3.org/2000/svg">
<path d="M3.5 18V12C3.5 9.61305 4.44821 7.32387 6.13604 5.63604C7.82387 3.94821 10.1131 3 12.5 3C14.8869 3 17.1761 3.94821 18.864 5.63604C20.5518 7.32387 21.5 9.61305 21.5 12V18" stroke="#FE5837" stroke-width="2" stroke-linecap="round" stroke-linejoin="round"/>
<path d="M21.5 19C21.5 19.5304 21.2893 20.0391 20.9142 20.4142C20.5391 20.7893 20.0304 21 19.5 21H18.5C17.9696 21 17.4609 20.7893 17.0858 20.4142C16.7107 20.0391 16.5 19.5304 16.5 19V16C16.5 15.4696 16.7107 14.9609 17.0858 14.5858C17.4609 14.2107 17.9696 14 18.5 14H21.5V19ZM3.5 19C3.5 19.5304 3.71071 20.0391 4.08579 20.4142C4.46086 20.7893 4.96957 21 5.5 21H6.5C7.03043 21 7.53914 20.7893 7.91421 20.4142C8.28929 20.0391 8.5 19.5304 8.5 19V16C8.5 15.4696 8.28929 14.9609 7.91421 14.5858C7.53914 14.2107 7.03043 14 6.5 14H3.5V19Z" stroke="#FE5837" stroke-width="2" stroke-linecap="round" stroke-linejoin="round"/>
</svg>
