<svg width="25" height="25" viewBox="0 0 25 25" fill="none" xmlns="http://www.w3.org/2000/svg">
<g clip-path="url(#clip0_26_655)">
<path d="M12.0269 15.7214C10.37 15.7214 9.02686 17.0645 9.02686 18.7214V24.7214H15.0269V18.7214C15.0269 17.0645 13.6837 15.7214 12.0269 15.7214Z" fill="#B1B1B1"/>
<path d="M17.0269 18.7214V24.7214H21.0269C22.6837 24.7214 24.0269 23.3782 24.0269 21.7214V12.6004C24.0271 12.0809 23.8252 11.5816 23.4638 11.2084L14.9659 2.02134C13.4664 0.398994 10.9357 0.299385 9.3134 1.79882C9.23634 1.87007 9.16209 1.94428 9.09089 2.02134L0.607871 11.2054C0.23559 11.5802 0.0267149 12.0871 0.0268555 12.6154V21.7214C0.0268555 23.3782 1.37001 24.7214 3.02686 24.7214H7.02684V18.7214C7.04554 15.9945 9.24712 13.7678 11.9053 13.7037C14.6523 13.6374 17.0059 15.9021 17.0269 18.7214Z" fill="#B1B1B1"/>
<path d="M12.0269 15.7214C10.37 15.7214 9.02686 17.0645 9.02686 18.7214V24.7214H15.0269V18.7214C15.0269 17.0645 13.6837 15.7214 12.0269 15.7214Z" fill="#B1B1B1"/>
</g>
<defs>
<clipPath id="clip0_26_655">
<rect width="24" height="24" fill="white" transform="translate(0.0268555 0.728821)"/>
</clipPath>
</defs>
</svg>
