<svg width="102" height="73" viewBox="0 0 102 73" fill="none" xmlns="http://www.w3.org/2000/svg">
<g opacity="0.2">
<path d="M52.4627 5.75297V50.245C50.9993 49.7674 49.4705 49.5283 47.9333 49.5366C41.4107 49.5366 36.1135 54.2178 36.1135 60.8331C36.1135 67.4483 41.4107 72.0778 47.9333 72.0778C54.456 72.0778 59.7858 67.2069 59.7858 60.1393V29.2426H94.1844V50.245C92.7211 49.7673 91.1923 49.5282 89.655 49.5366C83.1324 49.5366 77.8353 54.2178 77.8353 60.8331C77.8353 67.4483 83.1324 72.0778 89.655 72.0778C96.1777 72.0778 101.508 67.2069 101.508 60.1393V5.75297H52.4627ZM94.1857 22.3342H59.7871V13.1813H94.1857V22.3342Z" fill="#FE5837"/>
<path d="M17.6715 0.844772V30.7042C15.5473 29.4614 13.078 28.9643 10.6468 29.2903C8.21558 29.6162 5.95842 30.7469 4.22559 32.5069C2.49275 34.2668 1.38113 36.5576 1.06323 39.0238C0.745323 41.49 1.23892 43.9936 2.46741 46.1462C3.6959 48.2988 5.5906 49.98 7.85748 50.9288C10.1244 51.8777 12.6367 52.0412 15.0045 51.394C17.3724 50.7467 19.4634 49.3249 20.9531 47.3492C22.4428 45.3735 23.2478 42.9544 23.2433 40.4672V12.1598H34.413V0.844772H17.6715Z" fill="#FE5837"/>
<path opacity="0.1" d="M32.7128 0.844727V10.3027H21.5431V38.6101C21.5438 40.736 20.9537 42.8191 19.8405 44.6205C18.7274 46.4219 17.1362 47.8687 15.2494 48.7949C13.3627 49.7212 11.2567 50.0894 9.17305 49.8574C7.08939 49.6253 5.11239 48.8024 3.46875 47.483C4.90542 49.3269 6.87262 50.6712 9.09709 51.3291C11.3216 51.9871 13.6929 51.9262 15.8816 51.1547C18.0704 50.3833 19.9679 48.9397 21.3106 47.0244C22.6533 45.1091 23.3746 42.8172 23.3742 40.4672V12.1597H34.5439V0.844727H32.7128Z" fill="black"/>
</g>
</svg>
