<svg width="22" height="23" viewBox="0 0 22 23" fill="none" xmlns="http://www.w3.org/2000/svg">
<g clip-path="url(#clip0_29_1394)">
<path d="M20.2247 5.50729C19.9528 5.08958 19.3936 4.97129 18.9755 5.24273L17.3829 6.2773C16.1 7.20949 15.5502 8.81328 15.9105 10.3236C16.6503 13.4243 14.3517 16.4213 11.1995 16.5423C8.32149 16.6527 5.95358 14.3523 5.95358 11.4988C5.95358 8.71128 8.2133 6.45157 11.0008 6.45157C11.2669 6.45157 11.4723 6.47333 11.4645 6.47264C11.7084 6.49441 11.9184 6.30229 11.9184 6.05744V1.40383C11.9184 0.905216 11.5104 0.500936 11.0118 0.500463C8.07005 0.497624 5.30406 1.64172 3.22411 3.72205C-1.07387 8.01913 -1.07554 14.9768 3.22411 19.2755C7.52119 23.5735 14.4789 23.5751 18.7776 19.2755C22.559 15.4949 22.9741 9.72964 20.2247 5.50729Z" fill="white"/>
<path d="M18.2162 3.19828C17.0089 2.1481 15.5622 1.3616 14.0326 0.923771C13.553 0.78663 13.0528 1.06405 12.9155 1.5437C12.8227 1.86779 12.8505 1.21272 12.8505 7.84225H11.0007C8.98455 7.84225 7.34424 9.48256 7.34424 11.4988C7.34424 13.5149 8.98455 15.1552 11.0007 15.1552C13.0169 15.1552 14.6572 13.5149 14.6572 11.4988C14.6572 11.0121 14.6572 3.55146 14.6572 3.0648C15.5162 3.43897 16.3225 3.94567 17.0304 4.56147C17.2016 4.71031 17.4127 4.78323 17.6229 4.78323C18.4516 4.78327 18.8489 3.74861 18.2162 3.19828ZM12.8362 11.4988C12.8362 12.5124 12.0144 13.3341 11.0007 13.3341C9.98707 13.3341 9.16531 12.5124 9.16531 11.4988C9.16531 10.4851 9.98707 9.66332 11.0007 9.66332H12.8362V11.4988Z" fill="white"/>
</g>
<defs>
<clipPath id="clip0_29_1394">
<rect width="22" height="22" fill="white" transform="translate(0 0.5)"/>
</clipPath>
</defs>
</svg>
