<svg width="20" height="20" viewBox="0 0 20 20" fill="none" xmlns="http://www.w3.org/2000/svg">
<path d="M6.39069 13.1243C6.54122 13.2748 6.76758 13.3198 6.96428 13.2384C7.16093 13.1569 7.28916 12.965 7.28916 12.7521V7.2479C7.28916 7.03503 7.16093 6.84312 6.96428 6.76164C6.89916 6.7347 6.83079 6.72159 6.76294 6.72159C6.626 6.72159 6.49136 6.77503 6.39069 6.87575L3.63859 9.62785C3.53988 9.72656 3.48438 9.86043 3.48438 10C3.48438 10.1396 3.53988 10.2735 3.63859 10.3721L6.39069 13.1243Z" fill="#1A1A1A"/>
<path d="M13.0359 13.2384C13.2324 13.3197 13.4588 13.275 13.6094 13.1243L16.3616 10.3721C16.4602 10.2734 16.5157 10.1396 16.5157 10C16.5157 9.86044 16.4603 9.72652 16.3616 9.62786L13.6094 6.87575C13.5087 6.77508 13.374 6.72159 13.2372 6.72159C13.1694 6.72159 13.1009 6.73465 13.0359 6.76164C12.8392 6.84312 12.7109 7.03503 12.7109 7.2479V12.7521C12.7109 12.965 12.8392 13.1569 13.0359 13.2384Z" fill="#1A1A1A"/>
<path d="M10.1435 0H9.8564C9.56573 0 9.33008 0.235646 9.33008 0.526316V2.20096C9.33008 2.49163 9.56573 2.72727 9.8564 2.72727H10.1435C10.4342 2.72727 10.6698 2.49163 10.6698 2.20096V0.526316C10.6698 0.235646 10.4342 0 10.1435 0Z" fill="#1A1A1A"/>
<path d="M10.1435 4.56229H9.8564C9.56573 4.56229 9.33008 4.79793 9.33008 5.0886V8.55621C9.33008 8.84688 9.56573 9.08253 9.8564 9.08253H10.1435C10.4342 9.08253 10.6698 8.84688 10.6698 8.55621V5.0886C10.6698 4.79788 10.4342 4.56229 10.1435 4.56229Z" fill="#1A1A1A"/>
<path d="M10.1435 10.9175H9.8564C9.56573 10.9175 9.33008 11.1532 9.33008 11.4438V14.9115C9.33008 15.2022 9.56573 15.4378 9.8564 15.4378H10.1435C10.4342 15.4378 10.6698 15.2022 10.6698 14.9115V11.4438C10.6698 11.1532 10.4342 10.9175 10.1435 10.9175Z" fill="#1A1A1A"/>
<path d="M10.1435 17.2727H9.8564C9.56573 17.2727 9.33008 17.5084 9.33008 17.7991V19.4737C9.33008 19.7644 9.56573 20 9.8564 20H10.1435C10.4342 20 10.6698 19.7644 10.6698 19.4737V17.7991C10.6698 17.5084 10.4342 17.2727 10.1435 17.2727Z" fill="#1A1A1A"/>
</svg>
