<svg width="25" height="25" viewBox="0 0 25 25" fill="none" xmlns="http://www.w3.org/2000/svg">
<g clip-path="url(#clip0_12_206)">
<path d="M16.5163 14.0225H8.43026C7.11607 14.0241 5.85616 14.5469 4.92689 15.4761C3.99762 16.4054 3.47485 17.6653 3.47327 18.9795V24.0225H21.4733V18.9795C21.4717 17.6653 20.9489 16.4054 20.0196 15.4761C19.0904 14.5469 17.8305 14.0241 16.5163 14.0225Z" fill="#B1B1B1"/>
<path d="M12.4733 12.0225C15.787 12.0225 18.4733 9.33622 18.4733 6.02252C18.4733 2.70881 15.787 0.022522 12.4733 0.022522C9.15956 0.022522 6.47327 2.70881 6.47327 6.02252C6.47327 9.33622 9.15956 12.0225 12.4733 12.0225Z" fill="#B1B1B1"/>
</g>
<defs>
<clipPath id="clip0_12_206">
<rect width="24" height="24" fill="white" transform="translate(0.473267 0.022522)"/>
</clipPath>
</defs>
</svg>
